PathFileType	4	(X/Y/Z)	Run_200 02
DataRate	CameraRate	NumFrames	NumMarkers	Units	OrigDataRate	OrigDataStartFrame	OrigNumFrames
100	100	4	42	mm	100	153	128
Frame#	Time	LASI			RASI			LPSI			RPSI			RTH1			RTH2			RTH3			LTH1			LTH2			LTH3			RTB1			RTB2			RTB3			LTB1			LTB2			LTB3			RCAL			RTOE			RMT5			LCAL			LTOE			LMT5			LACR			RACR			CLAV			C7			RUA1			RUA2			RUA3			RLEL			RMEL			LUA1			LUA2			LUA3			LLEL			LMEL			RFAsuperior			RFAradius			RFAulna			LFAsuperior			LFAradius			LFAulna			
		X1	Y1	Z1	X2	Y2	Z2	X3	Y3	Z3	X4	Y4	Z4	X5	Y5	Z5	X6	Y6	Z6	X7	Y7	Z7	X8	Y8	Z8	X9	Y9	Z9	X10	Y10	Z10	X11	Y11	Z11	X12	Y12	Z12	X13	Y13	Z13	X14	Y14	Z14	X15	Y15	Z15	X16	Y16	Z16	X17	Y17	Z17	X18	Y18	Z18	X19	Y19	Z19	X20	Y20	Z20	X21	Y21	Z21	X22	Y22	Z22	X23	Y23	Z23	X24	Y24	Z24	X25	Y25	Z25	X26	Y26	Z26	X27	Y27	Z27	X28	Y28	Z28	X29	Y29	Z29	X30	Y30	Z30	X31	Y31	Z31	X32	Y32	Z32	X33	Y33	Z33	X34	Y34	Z34	X35	Y35	Z35	X36	Y36	Z36	X37	Y37	Z37	X38	Y38	Z38	X39	Y39	Z39	X40	Y40	Z40	X41	Y41	Z41	X42	Y42	Z42	

137	2.77	688.848932	1032.723099	-437.248825	685.244837	1037.867931	-176.134313	516.09813	1062.308284	-357.234441	516.332017	1060.245798	-258.573894	637.907747	845.837656	-128.722857	757.439931	772.4798939999999	-139.920458	735.102955	641.957866	-166.380463	574.129899	841.577819	-475.406071	632.658903	710.580793	-449.430188	555.9370280000001	603.7928900000001	-433.074732	796.41624	420.053642	-234.192368	746.936571	380.719756	-171.750037	713.763317	273.161835	-234.013912	516.010043	368.857686	-351.673114	442.752603	308.474496	-414.873959	442.005002	231.523503	-343.00529	557.498398	190.778671	-241.651369	760.944527	92.977205	-243.255081	706.820443	101.539024	-154.811106	278.617591	139.652663	-336.518732	495.0426	67.990247	-311.526141	443.17186	55.783378	-404.041217	714.447785	1499.431898	-487.657447	677.940703	1525.648057	-157.415996	747.902788	1449.568999	-283.409713	632.719053	1534.499108	-331.215693	596.347432	1468.852979	-84.81215899999999	517.875659	1417.607123	-124.777712	522.108345	1364.175903	-64.99307	453.64267	1277.653187	-46.109872	449.072476	1270.822261	-127.631917	682.677536	1405.230511	-565.015347	627.047902	1321.927938	-544.63869	652.86045	1257.405226	-589.3883520000001	669.89149	1172.054736	-608.9789040000001	632.293562	1163.162058	-538.314178	531.845367	1203.153947	-29.263936	651.5988	1101.708142	-54.439117	592.515185	1060.023527	-51.488558	773.915243	1171.173352	-569.496474	892.427056	1177.527917	-457.927685	899.140374	1111.569536	-485.257759	
138	2.78	690.312689	1037.278892	-435.8078	686.470427	1043.974932	-175.956043	517.65761	1067.811038	-356.904617	517.4303	1066.250568	-257.777457	639.124947	852.165196	-127.171341	758.26786	778.631939	-139.916179	733.835829	647.700371	-166.591607	567.197552	846.579438	-475.364773	625.610245	715.57683	-449.652523	545.857844	610.319842	-434.161037	802.513544	423.462507	-234.822619	757.823392	379.565216	-171.827973	732.9224840000001	270.235659	-235.848758	501.970058	375.762214	-353.883773	427.692045	316.288287	-416.62305	427.806784	238.454178	-345.188431	584.4334239999999	175.088895	-242.093861	794.330741	92.192976	-246.342344	740.556878	94.926101	-157.508864	264.524909	149.75161	-337.44282	476.791978	67.386408	-312.227522	424.833652	56.973864	-404.440803	716.732638	1505.591917	-485.428505	677.297046	1530.605165	-156.316456	748.12937	1454.987424	-281.526442	633.283624	1539.495524	-330.27163	594.322685	1475.14512	-84.725751	516.12501	1424.916789	-126.174047	518.654343	1371.226381	-66.399833	448.998045	1285.196925	-48.849501	446.670343	1278.892321	-131.140609	686.446998	1412.163338	-564.038628	630.030003	1329.482766	-546.507208	657.104993	1264.354023	-590.140525	674.203847	1178.984327	-608.6141239999999	634.636702	1170.141423	-539.054672	526.454803	1210.248405	-31.197641	646.436492	1108.578038	-55.416146	587.196497	1067.003388	-53.507736	777.012215	1180.603059	-566.918414	892.596794	1191.158986	-452.857093	901.847139	1124.780385	-479.476465	
139	2.79	691.858189	1041.82943	-434.51795	687.7839729999999	1049.528136	-175.718295	519.339615	1072.832979	-356.511942	518.617465	1071.702791	-256.912743	639.744365	858.083853	-125.913218	757.970017	783.571414	-140.083944	730.655789	652.279623	-167.397738	561.534363	851.254125	-475.527517	619.635489	720.211381	-450.167711	536.917061	616.887488	-434.924431	807.4986709999999	426.016147	-235.037229	768.057317	378.053859	-171.655439	751.556925	267.786741	-237.148728	489.394592	382.71951	-356.039659	414.007338	324.35659	-418.495713	414.851349	245.687498	-347.480722	611.566025	160.716041	-242.288791	826.676095	92.789557	-250.496297	774.07337	89.072047	-161.12229	251.567272	160.550366	-338.600638	458.612323	66.920162	-312.827324	406.712372	58.52277	-404.923816	718.765175	1511.219303	-483.263272	677.016001	1535.108507	-155.211549	748.289037	1459.859679	-279.749025	633.83798	1544.145229	-329.310205	592.802403	1480.917701	-84.525378	514.9604	1431.577862	-127.497069	515.716193	1377.776164	-67.776127	445.113962	1291.982457	-51.446053	444.651784	1286.244243	-134.240425	689.919078	1418.703126	-563.092863	632.8243639999999	1336.707827	-548.3988409999999	660.849391	1270.915232	-590.857166	678.0327590000001	1185.539485	-608.503091	636.55314	1176.642195	-540.026922	521.868049	1216.590568	-33.088011	642.219933	1114.813693	-56.33194	582.789419	1073.369	-55.54867	779.6574859999999	1189.448064	-564.962248	892.146914	1203.085917	-448.212479	903.725414	1136.545293	-474.406259	
140	2.8	693.3332789999999	1046.181619	-433.541858	689.086262	1054.355474	-175.474293	521.062555	1077.322112	-356.068935	519.792317	1076.415816	-256.050131	639.7392610000001	863.460409	-125.116982	756.43134	787.028315	-140.515464	725.7839289999999	655.537348	-168.169677	556.977427	855.453087	-475.878774	614.770504	724.384321	-450.901007	529.383384	623.3118019999999	-435.409237	811.373968	427.69611	-234.902971	777.304827	376.302591	-171.491116	768.979855	265.717677	-237.736894	478.546003	389.425098	-358.068573	401.886362	332.486106	-420.33091	403.134246	252.887765	-349.78379	638.103401	147.752323	-242.061027	857.315683	95.569749	-255.322394	806.693044	85.58265299999999	-165.08863	239.565001	171.960263	-339.665475	440.524164	66.87125399999999	-313.347784	388.668297	60.590901	-405.406439	720.440388	1516.214367	-481.182528	677.036731	1539.046565	-154.126166	748.386591	1464.084978	-278.10111	634.330662	1548.314163	-328.316354	591.733804	1486.117638	-84.172222	514.374162	1437.471938	-128.57315	513.3684919999999	1383.641587	-69.063098	442.030207	1297.947812	-53.838635	442.937402	1292.733191	-136.813179	692.915528	1424.703588	-562.138496	635.334258	1343.347764	-549.957285	664.022726	1276.992016	-591.496499	681.374643	1191.626367	-608.68323	638.047687	1182.578179	-541.136978	518.173458	1222.161995	-34.857397	638.932018	1120.317498	-57.100428	579.339085	1078.991774	-57.470342	781.800748	1197.386791	-563.365061	891.194307	1213.051778	-444.059741	904.855205	1146.731892	-470.023198	
